<mxfile host="app.diagrams.net" modified="2024-06-17T22:40:28.790Z" agent="Mozilla/5.0 (Windows NT 10.0; Win64; x64) AppleWebKit/537.36 (KHTML, like Gecko) Chrome/125.0.0.0 Safari/537.36" version="24.5.5" etag="8G88QNdt3HKRGmm_pCUz" type="github">
  <diagram name="ページ1" id="vGhhu-e2sikLypeqresv">
    <mxGraphModel>
      <root>
        <mxCell id="0" />
        <mxCell id="1" parent="0" />
      </root>
    </mxGraphModel>
  </diagram>
</mxfile>
